<svg width="75" height="74" viewBox="0 0 75 74" fill="none" xmlns="http://www.w3.org/2000/svg">
<path d="M22.2187 31.1482C21.5328 30.5609 20.5006 30.6407 19.9132 31.3266C19.389 31.9387 19.389 32.8415 19.9132 33.4537L36.2644 49.8051C36.8958 50.4508 37.931 50.4624 38.5767 49.8311C38.5854 49.8225 38.5941 49.8139 38.6027 49.8051L65.8767 21.1902L68.2149 18.7375L72.9077 13.8321C73.599 13.2512 73.6886 12.2198 73.1077 11.5283C72.5267 10.837 71.4953 10.7474 70.8038 11.3283C70.7107 11.4066 70.6267 11.495 70.553 11.592L66.3508 15.9577L64.0779 18.345L37.3927 46.3222L22.2187 31.1482Z" fill="#C7B27D" stroke="#1D1C22" stroke-width="2"/>
<path d="M70.4713 23.4303H70.5041C69.8377 22.8207 68.8035 22.8668 68.1939 23.5332C67.8158 23.9466 67.6756 24.5248 67.8224 25.0655C74.5038 41.8454 66.3173 60.8645 49.5375 67.5458C32.7578 74.227 13.7386 66.0407 7.05717 49.2608C0.375778 32.481 8.56226 13.4619 25.3422 6.78049C37.6751 1.86978 51.753 4.90147 60.9713 14.4534C61.6705 15.0249 62.7006 14.9213 63.2721 14.2221C63.7864 13.5928 63.7606 12.6814 63.2114 12.0824C63.144 12.0335 63.0729 11.9897 62.9988 11.9516C49.1049 -2.18602 26.3807 -2.38359 12.2432 11.5104C-1.89444 25.4043 -2.09215 48.1285 11.8018 62.2661C25.6957 76.4038 48.4199 76.6014 62.5574 62.7074C72.7798 52.6613 76.0453 37.4965 70.8638 24.1335C70.7935 23.87 70.6586 23.6283 70.4713 23.4303Z" fill="#C7B27D" stroke="#1D1C22" stroke-width="2"/>
</svg>