<svg width="0" height="0" class="hidden">



  <symbol fill="none" xmlns="http://www.w3.org/2000/svg" viewBox="0 0 30 30" id="vk">
    <g clip-path="url(#clip0)">
      <path d="M25 16.616v-.771l4.025-5.033c.63-.789.974-1.768.975-2.778 0-.985-.799-1.783-1.784-1.784h-4.385a1.676 1.676 0 00-1.551 1.028 32.08 32.08 0 01-3.325 6.633 1.3 1.3 0 01-1.456.1V7.618a1.375 1.375 0 00-1.366-1.368h-5.508a.625.625 0 00-.443 1.068l.343.342a2.46 2.46 0 01.725 1.748v4.75a.412.412 0 01-.216.116.953.953 0 01-.592-.338 54.571 54.571 0 01-4.26-7.343.625.625 0 00-.557-.343h-4C.728 6.25 0 6.978 0 7.875v.319a7.07 7.07 0 001.061 3.731c3.353 5.394 7.95 11.825 10.814 11.825h4.089a1.539 1.539 0 001.536-1.536v-1.07a1.142 1.142 0 011.951-.808l2.595 2.595a2.788 2.788 0 001.98.819h4.46a1.511 1.511 0 001.068-2.579L25 16.616z" fill="#E0E0E0"></path>
    </g>
    <defs>
      <clipPath id="clip0">
        <path fill="#fff" d="M0 0h30v30H0z"></path>
      </clipPath>
    </defs>
  </symbol>

  <symbol fill="none" xmlns="http://www.w3.org/2000/svg" viewBox="0 0 30 30" id="twitter">
    <path d="M27.195 7.442a.529.529 0 00-.635-.113 4.47 4.47 0 01-.676.245c.361-.462.634-.987.804-1.548a.53.53 0 00-.814-.57c-.805.436-1.66.77-2.546.996a5.324 5.324 0 00-6.671-.515 5.25 5.25 0 00-2.286 4.851 12.527 12.527 0 01-8.773-4.725.547.547 0 00-.45-.198.529.529 0 00-.423.258 5.12 5.12 0 00-.584 3.975 5.66 5.66 0 00.92 1.923 2.81 2.81 0 01-.538-.344.529.529 0 00-.862.41 5.471 5.471 0 002.818 4.698 3.925 3.925 0 01-.681-.146.529.529 0 00-.635.724 5.774 5.774 0 004.008 3.28 9.322 9.322 0 01-5.581 1.149.53.53 0 00-.32.986A15.855 15.855 0 0011.087 25c2.644-.01 5.225-.8 7.421-2.27 4.194-2.782 6.807-7.778 6.443-12.249a9.884 9.884 0 002.3-2.397.53.53 0 00-.057-.642z" fill="#E0E0E0"></path>
  </symbol>

  <symbol fill="none" xmlns="http://www.w3.org/2000/svg" viewBox="0 0 30 30" id="facebook">
    <path d="M17.5 7h3a.5.5 0 00.5-.5v-3a.5.5 0 00-.5-.5h-3A5.506 5.506 0 0012 8.5V12H8.5a.5.5 0 00-.5.5v3a.5.5 0 00.5.5H12v10.5a.5.5 0 00.5.5h3a.5.5 0 00.5-.5V16h3.5a.5.5 0 00.474-.341l1-3A.5.5 0 0020.5 12H16V8.5A1.5 1.5 0 0117.5 7z" fill="#E0E0E0"></path>
  </symbol>

  <symbol fill="none" xmlns="http://www.w3.org/2000/svg" viewBox="0 0 29 30" id="mailw">
    <path d="M23.766 5H4.753C3.446 5 2.39 6.125 2.39 7.5l-.012 15c0 1.375 1.07 2.5 2.376 2.5h19.013c1.308 0 2.377-1.125 2.377-2.5v-15c0-1.375-1.07-2.5-2.377-2.5zm0 17.5H4.753V10l9.507 6.25L23.766 10v12.5zm-9.506-8.75L4.753 7.5h19.013l-9.506 6.25z" fill="#F2F2F2"></path>
  </symbol>
  <symbol fill="none" xmlns="http://www.w3.org/2000/svg" viewBox="0 0 29 30" id="phonew">
    <path d="M17.825 15H20.2c0-3.45-2.662-6.25-5.941-6.25v2.5c1.972 0 3.565 1.675 3.565 3.75zm4.753 0h2.377c0-2.984-1.127-5.845-3.133-7.955-2.006-2.11-4.726-3.295-7.562-3.295v2.5c4.598 0 8.318 3.912 8.318 8.75zm1.188 4.375c-1.485 0-2.911-.25-4.242-.712a1.266 1.266 0 00-.368-.063c-.31 0-.606.125-.844.362l-2.614 2.75c-3.374-1.804-6.116-4.689-7.831-8.237l2.614-2.762a1.23 1.23 0 00.322-.58 1.26 1.26 0 00-.025-.67c-.45-1.44-.68-2.947-.677-4.463 0-.688-.535-1.25-1.189-1.25H4.753c-.653 0-1.188.563-1.188 1.25 0 11.738 9.043 21.25 20.201 21.25.654 0 1.189-.563 1.189-1.25v-4.375c0-.688-.535-1.25-1.189-1.25zM5.977 6.25H7.76c.083 1.1.261 2.188.534 3.225l-1.426 1.513a20.063 20.063 0 01-.89-4.738zm16.6 17.462a16.946 16.946 0 01-4.515-.95l1.426-1.5c1.01.3 2.044.488 3.09.563v1.887z" fill="#F2F2F2"></path>
  </symbol>
  <symbol fill="none" xmlns="http://www.w3.org/2000/svg" viewBox="0 0 30 30" id="whatsapp">
    <path fill-rule="evenodd" clip-rule="evenodd" d="M22.973 7.036a11.132 11.132 0 00-7.926-3.285c-6.174 0-11.203 5.025-11.203 11.198a11.14 11.14 0 001.494 5.6L3.75 26.353l5.94-1.56a11.21 11.21 0 005.353 1.366h.005c6.174 0 11.198-5.024 11.202-11.202 0-2.992-1.164-5.805-3.277-7.922zm-7.926 17.23h-.004a9.31 9.31 0 01-4.739-1.297l-.34-.201-3.527.923.941-3.436-.22-.351a9.285 9.285 0 01-1.424-4.955c0-5.13 4.178-9.305 9.317-9.305a9.246 9.246 0 016.58 2.728 9.26 9.26 0 012.724 6.585c0 5.134-4.178 9.309-9.31 9.309h.002zm5.105-6.973c-.279-.139-1.656-.816-1.912-.908-.256-.095-.443-.14-.63.139-.188.281-.722.912-.886 1.099-.161.182-.326.209-.605.07-.28-.14-1.182-.437-2.252-1.392-.831-.74-1.395-1.66-1.556-1.938-.165-.281-.018-.431.121-.572.128-.124.281-.325.421-.49.139-.16.188-.278.281-.465.092-.187.045-.352-.025-.49-.07-.14-.629-1.52-.863-2.08-.228-.546-.459-.47-.63-.48-.162-.007-.348-.007-.535-.007-.187 0-.491.069-.748.351-.256.279-.978.956-.978 2.333 0 1.377 1.003 2.71 1.144 2.897.139.182 1.973 3.009 4.781 4.222.668.289 1.187.461 1.594.59.67.212 1.282.183 1.765.112.538-.08 1.655-.677 1.89-1.332.231-.652.231-1.212.16-1.33-.069-.116-.255-.187-.537-.33z" fill="#E0E0E0"></path>
  </symbol>
  <symbol fill="none" xmlns="http://www.w3.org/2000/svg" viewBox="0 0 30 30" id="telegram">
    <path d="M22.26 7.8L5.64 14.4c-.54.18-.48.96.06 1.14l4.2 1.32 1.68 5.28c.12.42.66.54.96.24L15 20.1l4.68 3.42c.36.24.84.06.96-.36l3.24-13.92c.18-1.02-.72-1.8-1.62-1.44zm-9.72 10.08L12 21l-1.2-4.32L22.5 9l-9.96 8.88z" fill="#E0E0E0"></path>
  </symbol>
  <symbol fill="none" xmlns="http://www.w3.org/2000/svg" viewBox="0 0 30 30" id="instagram">
    <path d="M26.928 10.053c-.058-1.277-.261-2.15-.558-2.913a5.88 5.88 0 00-1.384-2.125A5.883 5.883 0 0022.86 3.63c-.763-.296-1.635-.499-2.912-.557C18.668 3.014 18.259 3 15 3c-3.259 0-3.668.014-4.947.073-1.278.058-2.15.26-2.913.558-.801.3-1.526.773-2.126 1.384A5.882 5.882 0 003.63 7.14c-.297.763-.5 1.636-.557 2.913C3.013 11.333 3 11.74 3 15s.014 3.668.073 4.948c.058 1.277.26 2.15.557 2.913a5.88 5.88 0 001.384 2.125A5.88 5.88 0 007.14 26.37c.763.297 1.635.5 2.913.558 1.28.059 1.688.072 4.947.072 3.26 0 3.668-.013 4.948-.072 1.277-.058 2.15-.26 2.913-.558a6.135 6.135 0 003.51-3.509c.296-.763.499-1.636.557-2.913.058-1.28.072-1.689.072-4.947 0-3.26-.014-3.668-.072-4.948zm-2.16 9.797c-.053 1.17-.249 1.805-.413 2.228a3.973 3.973 0 01-2.278 2.277c-.422.165-1.058.36-2.228.414-1.265.058-1.645.07-4.849.07s-3.584-.012-4.85-.07c-1.169-.054-1.804-.25-2.227-.413a3.717 3.717 0 01-1.38-.898 3.718 3.718 0 01-.898-1.38c-.164-.423-.36-1.058-.413-2.228-.058-1.266-.07-1.645-.07-4.85 0-3.204.012-3.583.07-4.848.054-1.17.249-1.806.413-2.229.193-.521.5-.992.898-1.38a3.716 3.716 0 011.38-.897c.423-.165 1.058-.36 2.228-.413 1.265-.058 1.645-.07 4.85-.07H15c3.204 0 3.584.012 4.85.07 1.17.053 1.804.249 2.227.413a3.72 3.72 0 011.38.897c.399.388.705.859.898 1.38.164.423.36 1.058.413 2.229.058 1.265.07 1.644.07 4.849 0 3.204-.012 3.583-.07 4.849z" fill="#E0E0E0"></path>
    <path d="M15 8.838a6.162 6.162 0 100 12.325 6.162 6.162 0 000-12.325zm0 10.163a4 4 0 110-8 4 4 0 010 8zm7.846-10.406a1.44 1.44 0 11-2.88 0 1.44 1.44 0 012.88 0z" fill="#E0E0E0"></path>
  </symbol>
  <symbol fill="none" xmlns="http://www.w3.org/2000/svg" viewBox="0 0 50 50" id="agreement">
    <g clip-path="url(#clip0)" fill="#05376C">
      <path d="M14.556 38.098a.78.78 0 01-.67-.379l-3.315-5.52a.781.781 0 111.34-.805l3.315 5.52a.781.781 0 01-.67 1.184zm10.495-11.601a.766.766 0 01-.378-.098l-4.972-2.763a.78.78 0 11.758-1.366l4.972 2.763a.78.78 0 01-.38 1.464z"></path>
      <path d="M10.134 33.682a.78.78 0 01-.552-1.334l11.052-11.055a.78.78 0 111.105 1.105L10.687 33.453a.777.777 0 01-.553.229z"></path>
      <path d="M21.187 22.628a.78.78 0 01-.553-.229l-1.662-1.662a.78.78 0 111.105-1.105l1.662 1.662a.781.781 0 01-.552 1.334zM10.134 33.682a.78.78 0 01-.552-.23L7.92 31.79a.78.78 0 111.105-1.105l1.662 1.664a.78.78 0 01-.553 1.334zM36.1 37.55a.782.782 0 01-.682-1.161l2.76-4.968a.782.782 0 011.367.76l-2.762 4.968a.783.783 0 01-.684.4zm-10.497-11.6a.782.782 0 01-.35-1.481l4.417-2.21a.782.782 0 01.7 1.398l-4.418 2.21a.775.775 0 01-.349.083z"></path>
      <path d="M39.966 33.686a.78.78 0 01-.552-.229L28.363 22.405a.78.78 0 111.105-1.105l11.05 11.052a.78.78 0 01-.552 1.334z"></path>
      <path d="M28.915 22.634a.78.78 0 01-.552-1.334l1.662-1.662a.78.78 0 111.105 1.105l-1.662 1.662a.777.777 0 01-.553.23zm11.051 11.052a.78.78 0 01-.553-1.334l1.664-1.663a.78.78 0 111.105 1.105l-1.663 1.663a.776.776 0 01-.553.23zm-19.333-2.77a.78.78 0 01-.552-1.334l4.974-4.97a.78.78 0 111.105 1.106l-4.974 4.969a.778.778 0 01-.553.229zm2.488 3.042a.78.78 0 01-.552-1.334l3.59-3.592a.78.78 0 111.105 1.105l-3.59 3.592a.78.78 0 01-.553.23z"></path>
      <path d="M28.923 30.366a.782.782 0 01-.553-.229.774.774 0 00-.552-.23.774.774 0 00-.553.23.78.78 0 11-1.105-1.105 2.335 2.335 0 011.657-.687h.001a2.33 2.33 0 011.659.687.782.782 0 01-.554 1.334z"></path>
      <path d="M36.104 37.547a.78.78 0 01-.552-.23l-7.18-7.18a.78.78 0 111.104-1.105l7.18 7.18a.78.78 0 01-.552 1.335zM21.74 34.528a2.732 2.732 0 01-1.934-4.666.78.78 0 111.105 1.105 1.173 1.173 0 000 1.657 1.176 1.176 0 001.659 0 .78.78 0 111.103 1.106 2.726 2.726 0 01-1.933.798zM23.947 50c-.73 0-1.417-.284-1.933-.8a2.738 2.738 0 010-3.869l.553-.554c1.034-1.033 2.834-1.033 3.868.002a2.737 2.737 0 010 3.866l-.553.553a2.718 2.718 0 01-1.935.801zm.553-4.46c-.312 0-.605.12-.827.342l-.552.554a1.173 1.173 0 00.826 2c.313 0 .608-.121.83-.343l.553-.554a1.172 1.172 0 00-.83-2z"></path>
      <path d="M21.184 47.236c-.73 0-1.417-.284-1.933-.8a2.74 2.74 0 010-3.869l.554-.553c1.031-1.032 2.833-1.033 3.866 0 .517.517.802 1.204.802 1.935 0 .73-.285 1.417-.802 1.934l-.552.553a2.72 2.72 0 01-1.935.8zm.554-4.46c-.313 0-.607.122-.828.343l-.554.553a1.174 1.174 0 000 1.659c.221.22.515.342.828.342.313 0 .608-.122.83-.344l.553-.553c.221-.22.343-.515.343-.829a1.168 1.168 0 00-1.172-1.17z"></path>
      <path d="M18.423 44.473c-.73 0-1.417-.284-1.933-.801a2.709 2.709 0 01-.802-1.932c0-.731.284-1.418.8-1.936l.553-.553c1.035-1.034 2.837-1.032 3.868 0 .517.517.801 1.204.801 1.935 0 .73-.284 1.416-.8 1.934l-.553.552a2.72 2.72 0 01-1.934.801zm.553-4.46c-.313 0-.607.122-.83.343l-.552.553a1.168 1.168 0 000 1.657c.444.444 1.215.442 1.658.001l.552-.552c.221-.221.343-.516.343-.83 0-.313-.122-.607-.343-.829a1.161 1.161 0 00-.828-.343z"></path>
      <path d="M15.66 41.71a2.716 2.716 0 01-1.935-.8 2.718 2.718 0 01-.802-1.934c0-.731.286-1.417.802-1.935l.553-.552c1.033-1.033 2.834-1.033 3.867 0a2.71 2.71 0 01.801 1.934 2.72 2.72 0 01-.8 1.934l-.554.553c-.515.516-1.202.8-1.933.8zm.553-4.46c-.313 0-.608.122-.83.344l-.552.552a1.165 1.165 0 00-.344.83c0 .313.122.606.344.829a1.2 1.2 0 001.657 0l.553-.554c.221-.22.343-.515.343-.828 0-.313-.12-.607-.343-.83a1.164 1.164 0 00-.828-.342zM27.26 50c-.7 0-1.399-.266-1.931-.798a.78.78 0 111.105-1.105 1.175 1.175 0 001.658-.002c.456-.457.457-1.2 0-1.658a.779.779 0 01.002-1.105.781.781 0 011.105.002 1.168 1.168 0 001.656 0 1.176 1.176 0 000-1.659.779.779 0 010-1.104.78.78 0 011.106 0c.456.456 1.2.455 1.657-.001.456-.457.457-1.2 0-1.657a.78.78 0 010-1.105.78.78 0 011.106 0c.442.442 1.213.441 1.656-.002.457-.457.458-1.2.002-1.656a.78.78 0 111.105-1.105 2.738 2.738 0 01-1.937 4.668h-.028a2.727 2.727 0 01-2.735 2.761h-.028a2.733 2.733 0 01-2.733 2.765c0-.002-.019 0-.03 0A2.733 2.733 0 0127.262 50z"></path>
      <path d="M25.882 49.431a.78.78 0 01-.552-.229l-.277-.277a.78.78 0 111.105-1.105l.277.277a.78.78 0 01-.553 1.334zm2.765-2.764a.78.78 0 01-.553-.23l-.83-.83a.78.78 0 111.105-1.105l.83.83a.78.78 0 01-.552 1.335zm2.763-2.763a.777.777 0 01-.553-.23l-.83-.83a.78.78 0 111.105-1.105l.83.83a.781.781 0 01-.553 1.335zm2.762-2.764a.78.78 0 01-.553-.23l-.83-.828a.781.781 0 111.106-1.105l.83.83a.78.78 0 01-.553 1.332zm2.764-2.763a.78.78 0 01-.553-.23l-.83-.83a.78.78 0 111.105-1.105l.83.83a.78.78 0 01-.552 1.335zM7.924 32.574a.78.78 0 01-.552-.23l-2.763-2.76a.78.78 0 010-1.106l12.158-12.157a.78.78 0 011.105 0l2.762 2.762a.78.78 0 010 1.105L8.477 32.345a.777.777 0 01-.553.229zM6.267 29.03l1.657 1.656 11.052-11.051-1.657-1.658L6.267 29.031zm35.914 3.544a.78.78 0 01-.552-.23L29.473 20.192a.78.78 0 010-1.105l2.762-2.763a.804.804 0 011.105 0l12.157 12.155a.78.78 0 010 1.105l-2.763 2.762a.776.776 0 01-.553.229zm-11.05-12.936l11.05 11.05 1.659-1.656L32.787 17.98l-1.656 1.658zm-6.078-2.445c-4.74 0-8.597-3.857-8.597-8.597 0-4.74 3.857-8.596 8.597-8.596 4.74 0 8.596 3.857 8.596 8.596 0 4.74-3.856 8.597-8.596 8.597zm0-15.63a7.041 7.041 0 00-7.034 7.033 7.041 7.041 0 007.034 7.034 7.041 7.041 0 007.033-7.034 7.041 7.041 0 00-7.033-7.033z"></path>
      <path d="M28.192 12.503H21.94a.78.78 0 110-1.563h6.252a.78.78 0 110 1.563z"></path>
      <path d="M25.066 12.503a.78.78 0 01-.782-.781V4.689a.78.78 0 111.563 0v7.033a.78.78 0 01-.781.781z"></path>
      <path d="M28.192 6.252H21.94a.78.78 0 110-1.563h6.252a.78.78 0 110 1.563zm.781 2.344H27.41a.78.78 0 110-1.563h1.563a.78.78 0 110 1.563zm-6.252 0h-1.563a.78.78 0 110-1.563h1.563a.78.78 0 110 1.563z"></path>
    </g>
    <defs>
      <clipPath id="clip0">
        <path fill="#fff" d="M0 0h50v50H0z"></path>
      </clipPath>
    </defs>
  </symbol>
  <symbol fill="none" xmlns="http://www.w3.org/2000/svg" viewBox="0 0 32 32" id="import">
    <path d="M16 8v2m0 4v9-9zm0 16c7.732 0 14-6.268 14-14S23.732 2 16 2 2 8.268 2 16s6.268 14 14 14z" stroke="#E22021" stroke-width="2" stroke-linecap="round" stroke-linejoin="round"></path>
  </symbol>
  <symbol fill="none" xmlns="http://www.w3.org/2000/svg" viewBox="0 0 30 30" id="rekviz">
    <path d="M15 7.375a2.625 2.625 0 110 5.25 2.625 2.625 0 010-5.25zm0 11.25c3.712 0 7.625 1.825 7.625 2.625v1.375H7.375V21.25c0-.8 3.912-2.625 7.625-2.625zM15 5c-2.762 0-5 2.237-5 5 0 2.762 2.238 5 5 5s5-2.238 5-5c0-2.763-2.238-5-5-5zm0 11.25c-3.338 0-10 1.675-10 5V25h20v-3.75c0-3.325-6.663-5-10-5z" fill="#111"></path>
  </symbol>
  <symbol fill="none" xmlns="http://www.w3.org/2000/svg" viewBox="0 0 50 50" id="letter">
    <path d="M43.952 20.868V2.538A2.54 2.54 0 0041.414 0H8.585a2.54 2.54 0 00-2.538 2.538v18.33a2.542 2.542 0 00-1.728 2.404v24.19A2.54 2.54 0 006.857 50h36.285a2.54 2.54 0 002.538-2.538v-24.19a2.542 2.542 0 00-1.728-2.404zm-5.04-.134L28.62 12.893 42.328 2.449a.97.97 0 01.004.089v18.196h-3.42zM7.667 2.538c0-.03.002-.06.005-.09l13.707 10.444-10.293 7.842H7.667V2.538zm18.936 9.855a2.65 2.65 0 01-3.207 0L9.256 1.62h31.487l-14.14 10.773zm-3.873 1.506c.691.435 1.48.652 2.27.652.789 0 1.578-.217 2.269-.651l8.97 6.834h-22.48l8.97-6.835zm21.33 33.563a.919.919 0 01-.918.918H6.857a.919.919 0 01-.918-.918v-24.19a.92.92 0 01.918-.918h36.285a.92.92 0 01.918.918v24.19z" fill="#05376C"></path>
    <path d="M11.177 25.054a2.54 2.54 0 00-2.538 2.538 2.54 2.54 0 002.538 2.538 2.54 2.54 0 002.537-2.538 2.54 2.54 0 00-2.537-2.538zm0 3.456a.919.919 0 010-1.836.919.919 0 010 1.836zM40.55 44.06h-6.91a.81.81 0 100 1.62h6.911a.81.81 0 000-1.62zm0-3.455H25.864a.81.81 0 000 1.62H40.55a.81.81 0 100-1.62zm0-3.456H25.864a.81.81 0 000 1.62H40.55a.81.81 0 100-1.62z" fill="#05376C"></path>
  </symbol>
  <symbol fill="none" xmlns="http://www.w3.org/2000/svg" viewBox="0 0 50 50" id="typewriter">
    <path d="M33.64 44.06H16.36a.81.81 0 100 1.62h17.28a.81.81 0 000-1.62zm-9.504-3.455a.81.81 0 000 1.62h1.728a.81.81 0 100-1.62h-1.728zm5.184 0a.81.81 0 000 1.62h1.728a.81.81 0 100-1.62H29.32zm7.721.81a.81.81 0 00-.81-.81h-1.728a.81.81 0 000 1.62h1.728a.81.81 0 00.81-.81zm4.374-.81h-1.728a.81.81 0 000 1.62h1.728a.81.81 0 100-1.62zm-30.292.81a.81.81 0 00-.81-.81H8.585a.81.81 0 000 1.62h1.728a.81.81 0 00.81-.81zm5.184 0a.81.81 0 00-.81-.81h-1.728a.81.81 0 000 1.62h1.728a.81.81 0 00.81-.81zm2.646-.81a.81.81 0 000 1.62h1.727a.81.81 0 100-1.62h-1.727zm5.183-5.292h1.728a.81.81 0 000-1.62h-1.728a.81.81 0 100 1.62zm5.184 0h1.728a.81.81 0 000-1.62H29.32a.81.81 0 100 1.62zm5.183 0h1.728a.81.81 0 000-1.62h-1.728a.81.81 0 100 1.62zm5.184 0h1.728a.81.81 0 000-1.62h-1.728a.81.81 0 100 1.62zm-31.102 0h1.728a.81.81 0 000-1.62H8.585a.81.81 0 100 1.62zm5.184 0h1.728a.81.81 0 000-1.62h-1.728a.81.81 0 100 1.62zm5.184 0h1.727a.81.81 0 000-1.62h-1.727a.81.81 0 100 1.62zm6.965 2.646c0 .447.363.81.81.81h1.728a.81.81 0 100-1.62h-1.728a.81.81 0 00-.81.81zm5.184 0c0 .447.362.81.81.81h1.727a.81.81 0 100-1.62h-1.728a.81.81 0 00-.81.81zm5.183 0c0 .447.363.81.81.81h1.728a.81.81 0 100-1.62h-1.728a.81.81 0 00-.81.81zm-25.918 0c0 .447.363.81.81.81h1.728a.81.81 0 100-1.62h-1.728a.81.81 0 00-.81.81zm-1.836 0a.81.81 0 00-.81-.81H5.994a.81.81 0 000 1.62H7.72a.81.81 0 00.81-.81zm35.476-.81h-1.728a.81.81 0 000 1.62h1.727a.81.81 0 100-1.62zm-5.184 6.911h-1.728a.81.81 0 100 1.62h1.728a.81.81 0 000-1.62zm-25.918 0h-1.728a.81.81 0 100 1.62h1.728a.81.81 0 000-1.62zm2.645-6.101c0 .447.363.81.81.81h1.729a.81.81 0 100-1.62H16.36a.81.81 0 00-.81.81zm5.184 0c0 .447.363.81.81.81h1.728a.81.81 0 100-1.62h-1.728a.81.81 0 00-.81.81z" fill="#05376C"></path>
    <path d="M46.598 28.51h-4.373v-3.564h1.105a2.542 2.542 0 002.404 1.728 2.54 2.54 0 002.538-2.538V20.68a2.54 2.54 0 00-2.538-2.538 2.542 2.542 0 00-2.404 1.728h-3.697V2.538A2.54 2.54 0 0037.095 0h-24.19a2.54 2.54 0 00-2.538 2.538V19.87H6.67a2.542 2.542 0 00-2.404-1.728 2.54 2.54 0 00-2.538 2.538v3.456a2.54 2.54 0 002.538 2.538 2.542 2.542 0 002.404-1.728h1.105v3.564H3.402A3.406 3.406 0 000 31.91v14.687A3.406 3.406 0 003.402 50h43.196A3.406 3.406 0 0050 46.598V31.911a3.406 3.406 0 00-3.402-3.401zM6.803 23.326V21.49h36.394v1.836H6.803zm26.781 1.62c-.274 1.03-1.065 1.998-2.299 2.783-1.667 1.06-3.899 1.645-6.285 1.645s-4.618-.584-6.285-1.645c-1.234-.785-2.026-1.752-2.3-2.783h17.17zm12.15-5.184a.92.92 0 01.918.918v3.456a.919.919 0 01-1.836 0V20.68a.92.92 0 01.918-.918zM11.987 2.538a.92.92 0 01.918-.918h24.19a.92.92 0 01.918.918V19.87H11.987V2.538zM4.266 25.054a.919.919 0 01-.918-.918V20.68a.919.919 0 011.836 0v3.456a.919.919 0 01-.918.918zM48.38 46.598c0 .983-.8 1.782-1.782 1.782H3.402c-.983 0-1.782-.8-1.782-1.782V31.911c0-.982.8-1.781 1.782-1.781h5.183a.81.81 0 00.81-.81v-4.374h5.362c.272 1.588 1.344 3.04 3.089 4.15 1.923 1.223 4.463 1.898 7.154 1.898 2.69 0 5.231-.675 7.155-1.898 1.744-1.11 2.816-2.562 3.089-4.15h5.36v4.374c0 .447.363.81.81.81h5.184c.983 0 1.782.799 1.782 1.781v14.687z" fill="#05376C"></path>
    <path d="M33.64 15.55H16.36a.81.81 0 100 1.62h17.28a.81.81 0 000-1.62zm0-4.319H16.36a.81.81 0 100 1.62h17.28a.81.81 0 000-1.62zm0-4.32H16.36a.81.81 0 100 1.62h17.28a.81.81 0 100-1.62z" fill="#05376C"></path>
  </symbol>
  <symbol fill="none" xmlns="http://www.w3.org/2000/svg" viewBox="0 0 50 50" id="calculator">
    <g clip-path="url(#clip0)" fill="#05376C">
      <path d="M46.099 30.463H32.823a.78.78 0 01-.781-.782v-3.123a.78.78 0 01.781-.781h13.276a.78.78 0 01.78.781v3.123a.78.78 0 01-.78.782zM33.604 28.9h11.714v-1.56H33.604v1.56zM44.92 46.876a1.954 1.954 0 01-1.953-1.953 1.953 1.953 0 013.905 0 1.955 1.955 0 01-1.953 1.953zm0-2.343a.392.392 0 00-.391.39.391.391 0 00.781 0 .392.392 0 00-.39-.39zm0-3.139a1.954 1.954 0 01-1.953-1.953c0-1.077.875-1.953 1.952-1.953s1.953.876 1.953 1.953a1.954 1.954 0 01-1.953 1.953zm0-2.343a.392.392 0 00-.391.39.391.391 0 00.781 0 .392.392 0 00-.39-.39zm0-3.131a1.954 1.954 0 01-1.953-1.953c0-1.077.875-1.953 1.952-1.953s1.953.876 1.953 1.953a1.954 1.954 0 01-1.953 1.953zm0-2.343a.391.391 0 10.39.39.392.392 0 00-.39-.39zm-5.473 13.299a1.955 1.955 0 01-1.953-1.953 1.953 1.953 0 013.905 0 1.954 1.954 0 01-1.952 1.953zm0-2.343a.392.392 0 00-.39.39c0 .215.175.39.39.39a.391.391 0 000-.781zm0-3.139a1.954 1.954 0 01-1.953-1.953c0-1.077.876-1.953 1.953-1.953s1.952.876 1.952 1.953a1.954 1.954 0 01-1.952 1.953zm0-2.343a.392.392 0 00-.39.39c0 .215.175.39.39.39a.391.391 0 000-.781zm0-3.131a1.954 1.954 0 01-1.953-1.953c0-1.077.876-1.953 1.953-1.953s1.952.876 1.952 1.953a1.954 1.954 0 01-1.952 1.953zm0-2.343a.391.391 0 000 .781.391.391 0 000-.781zm-5.473 13.299a1.954 1.954 0 01-1.952-1.953 1.953 1.953 0 013.905 0 1.954 1.954 0 01-1.953 1.953zm0-2.343a.392.392 0 00-.39.39c0 .215.175.39.39.39a.391.391 0 000-.781zm0-3.139a1.954 1.954 0 01-1.952-1.953c0-1.077.875-1.953 1.952-1.953 1.078 0 1.953.876 1.953 1.953a1.954 1.954 0 01-1.953 1.953zm0-2.343a.392.392 0 00-.39.39c0 .215.175.39.39.39a.391.391 0 000-.781zm0-3.131a1.954 1.954 0 01-1.952-1.953c0-1.077.875-1.953 1.952-1.953a1.954 1.954 0 010 3.905zm0-2.343a.391.391 0 10.39.39.391.391 0 00-.39-.39z"></path>
      <path d="M49.21 50H29.687a.78.78 0 01-.78-.781V23.438a.78.78 0 01.78-.781H49.21a.78.78 0 01.78.78V49.22a.78.78 0 01-.78.781zm-18.742-1.562h17.96v-24.22h-17.96v24.22zm-14.05-14.065a.78.78 0 01-.781-.78V31.25a.78.78 0 111.562 0v2.342a.78.78 0 01-.781.781zm10.155 0a.78.78 0 01-.781-.78V31.25a.78.78 0 111.562 0v2.342a.78.78 0 01-.781.781z"></path>
      <path d="M26.573 32.03H16.418a.78.78 0 110-1.561h10.155a.78.78 0 110 1.562z"></path>
      <path d="M19.937 32.03a.78.78 0 01-.78-.78V7.818a.78.78 0 111.561 0V31.25a.78.78 0 01-.78.78zm3.112 0a.78.78 0 01-.781-.78V7.818a.78.78 0 111.562 0V31.25a.78.78 0 01-.781.78zm-.001-28.912a.78.78 0 01-.78-.78.775.775 0 10-1.55 0 .78.78 0 11-1.562 0A2.34 2.34 0 0121.493 0a2.34 2.34 0 012.336 2.337.78.78 0 01-.78.781zm12.917 5.471a.78.78 0 110-1.563.776.776 0 000-1.55.78.78 0 110-1.561A2.34 2.34 0 0138.3 6.25a2.34 2.34 0 01-2.336 2.338z"></path>
      <path d="M35.965 5.477H7.035a.78.78 0 110-1.562h28.93a.78.78 0 110 1.562zm0 3.112H7.02a.78.78 0 110-1.563h28.944a.78.78 0 110 1.563z"></path>
      <path d="M7.043 8.589A2.34 2.34 0 014.706 6.25a2.34 2.34 0 012.337-2.336.78.78 0 110 1.562.775.775 0 000 1.55.78.78 0 110 1.562zm12.894-3.112a.78.78 0 01-.78-.781V2.337a.78.78 0 111.561 0v2.359a.78.78 0 01-.78.78zm3.112 0a.78.78 0 01-.781-.781V2.337a.78.78 0 111.562 0v2.359a.78.78 0 01-.781.78zM7.042 30.467a7.037 7.037 0 01-7.03-7.03.78.78 0 111.563 0 5.474 5.474 0 005.467 5.468 5.474 5.474 0 005.468-5.467.78.78 0 111.562 0 7.037 7.037 0 01-7.03 7.03z"></path>
      <path d="M13.29 24.219H.795a.78.78 0 110-1.562H13.29a.78.78 0 110 1.562z"></path>
      <path d="M13.29 24.219a.78.78 0 01-.725-.49L6.297 8.098a.78.78 0 111.45-.582l6.268 15.63a.78.78 0 01-.725 1.072z"></path>
      <path d="M.794 24.219a.78.78 0 01-.725-1.07L6.297 7.52a.78.78 0 111.451.579L1.52 23.726a.782.782 0 01-.726.492zm41.403 0a.781.781 0 01-.725-.49l-6.269-15.63a.78.78 0 111.45-.582l6.268 15.63a.78.78 0 01-.724 1.072z"></path>
      <path d="M29.7 24.219a.78.78 0 01-.726-1.07l6.228-15.63a.78.78 0 111.451.578l-6.229 15.63a.78.78 0 01-.724.492zm-.008 10.173H7.826a.78.78 0 110-1.562h21.866a.78.78 0 110 1.562zm0 7.811H7.826a.78.78 0 110-1.562h21.866a.78.78 0 110 1.562z"></path>
      <path d="M7.828 42.19a2.346 2.346 0 01-2.344-2.344.78.78 0 111.562 0c0 .431.35.781.782.781a.78.78 0 110 1.563zm-1.563-6.27a.78.78 0 01-.78-.781 2.346 2.346 0 012.343-2.344.78.78 0 110 1.563.781.781 0 00-.782.78.78.78 0 01-.78.782z"></path>
      <path d="M6.265 40.627a.78.78 0 01-.78-.78V35.14a.78.78 0 111.561 0v4.706a.78.78 0 01-.78.781zm3.125 3.906a.78.78 0 01-.782-.781v-2.33a.78.78 0 111.563 0v2.33a.78.78 0 01-.782.78z"></path>
      <path d="M16.42 44.533H9.39a.78.78 0 110-1.562h7.03a.78.78 0 110 1.562z"></path>
      <path d="M16.42 44.533a.78.78 0 01-.781-.781v-2.33a.78.78 0 111.562 0v2.33a.78.78 0 01-.781.78z"></path>
    </g>
    <defs>
      <clipPath id="clip0">
        <path fill="#fff" d="M0 0h50v50H0z"></path>
      </clipPath>
    </defs>
  </symbol>
  <symbol fill="none" xmlns="http://www.w3.org/2000/svg" viewBox="0 0 24 24" id="arr-down">
    <path fill="#05376C" d="M0 0h24v24H0z"></path>
    <path d="M12 20V4m-7 9l7 7 7-7" stroke="#fff" stroke-width="2" stroke-linecap="round" stroke-linejoin="round"></path>
  </symbol>
  <symbol fill="none" xmlns="http://www.w3.org/2000/svg" viewBox="0 0 30 30" id="zoom">
    <path d="M17.25 12.75a.75.75 0 00-.75-.75h-3V9A.75.75 0 1012 9v3H9a.75.75 0 100 1.5h3v3a.75.75 0 101.5 0v-3h3a.75.75 0 00.75-.75z" fill="#05376C"></path>
    <path d="M12.75 4.5a8.25 8.25 0 016.34 13.53l6.191 6.189a.75.75 0 01-.957 1.147l-.105-.085-6.189-6.19A8.25 8.25 0 1112.75 4.5zm0 1.5a6.75 6.75 0 100 13.5 6.75 6.75 0 000-13.5z" fill="#05376C"></path>
  </symbol>
  <symbol fill="none" xmlns="http://www.w3.org/2000/svg" viewBox="0 0 24 24" id="alertbl">
    <path d="M12 22c5.523 0 10-4.477 10-10S17.523 2 12 2 2 6.477 2 12s4.477 10 10 10z" stroke="#333" stroke-width="2"></path>
    <path d="M12 16.5v.5m0-10v6-6z" stroke="#333" stroke-width="2" stroke-linecap="round"></path>
  </symbol>
  <symbol xmlns="http://www.w3.org/2000/svg" width="18" height="17" viewBox="0 0 18 17" fill="none" id="arr-r">
    <path d="M0 8H15.3125L8.75 1.4375L9.58 0.5L17.705 8.625L9.58 16.75L8.75 15.8125L15.3125 9.25H0V8Z" fill="currentColor"/>
  </symbol>
  <symbol xmlns="http://www.w3.org/2000/svg" viewBox="0 0 15 18" fill="none" id="play">
    <path d="M15 9L-8.15666e-07 17.6603L-5.85621e-08 0.339745L15 9Z" fill="currentColor"/>
  </symbol>
  <symbol xmlns="http://www.w3.org/2000/svg" viewBox="0 0 448 512" fill="currentColor" id="skype"><path d="M424.7 299.8c2.9-14 4.7-28.9 4.7-43.8 0-113.5-91.9-205.3-205.3-205.3-14.9 0-29.7 1.7-43.8 4.7C161.3 40.7 137.7 32 112 32 50.2 32 0 82.2 0 144c0 25.7 8.7 49.3 23.3 68.2-2.9 14-4.7 28.9-4.7 43.8 0 113.5 91.9 205.3 205.3 205.3 14.9 0 29.7-1.7 43.8-4.7 19 14.6 42.6 23.3 68.2 23.3 61.8 0 112-50.2 112-112 .1-25.6-8.6-49.2-23.2-68.1zm-194.6 91.5c-65.6 0-120.5-29.2-120.5-65 0-16 9-30.6 29.5-30.6 31.2 0 34.1 44.9 88.1 44.9 25.7 0 42.3-11.4 42.3-26.3 0-18.7-16-21.6-42-28-62.5-15.4-117.8-22-117.8-87.2 0-59.2 58.6-81.1 109.1-81.1 55.1 0 110.8 21.9 110.8 55.4 0 16.9-11.4 31.8-30.3 31.8-28.3 0-29.2-33.5-75-33.5-25.7 0-42 7-42 22.5 0 19.8 20.8 21.8 69.1 33 41.4 9.3 90.7 26.8 90.7 77.6 0 59.1-57.1 86.5-112 86.5z"/></symbol>
  <symbol xmlns="http://www.w3.org/2000/svg" viewBox="0 0 576 512" fill="currentColor" id="youtube"><path d="M549.655 124.083c-6.281-23.65-24.787-42.276-48.284-48.597C458.781 64 288 64 288 64S117.22 64 74.629 75.486c-23.497 6.322-42.003 24.947-48.284 48.597-11.412 42.867-11.412 132.305-11.412 132.305s0 89.438 11.412 132.305c6.281 23.65 24.787 41.5 48.284 47.821C117.22 448 288 448 288 448s170.78 0 213.371-11.486c23.497-6.321 42.003-24.171 48.284-47.821 11.412-42.867 11.412-132.305 11.412-132.305s0-89.438-11.412-132.305zm-317.51 213.508V175.185l142.739 81.205-142.739 81.201z"/></symbol>

</svg>
