<svg width="75" height="74" fill="none" xmlns="http://www.w3.org/2000/svg">
    <path d="M22.219 31.148a1.635 1.635 0 0 0-2.306 2.306l16.351 16.351a1.635 1.635 0 0 0 2.313.026l.026-.026L65.877 21.19l2.338-2.453 4.693-4.905a1.635 1.635 0 1 0-2.355-2.24l-4.202 4.366-2.273 2.387-26.685 27.977-15.174-15.174Z" fill="#C7B27D" stroke="#1D1C22" stroke-width="2"/>
    <path d="M70.471 23.43h.033a1.635 1.635 0 0 0-2.682 1.636c6.682 16.78-1.505 35.799-18.285 42.48-16.78 6.681-35.798-1.505-42.48-18.285C.376 32.48 8.562 13.46 25.342 6.78a32.702 32.702 0 0 1 35.63 7.672 1.635 1.635 0 0 0 2.24-2.37 1.637 1.637 0 0 0-.213-.131C49.105-2.186 26.38-2.384 12.243 11.51c-14.137 13.894-14.335 36.618-.441 50.756 13.894 14.138 36.618 14.335 50.755.441a35.891 35.891 0 0 0 8.307-38.573 1.637 1.637 0 0 0-.393-.704Z" fill="#C7B27D" stroke="#1D1C22" stroke-width="2"/>
</svg>
