<svg width="980" height="980" viewBox="0 0 980 980" fill="none" xmlns="http://www.w3.org/2000/svg">
<path fill-rule="evenodd" clip-rule="evenodd" d="M487.5 -0.5C488.833 -0.5 490.167 -0.5 491.5 -0.5C654.132 91.1512 816.798 182.818 979.5 274.5C979.5 473.833 979.5 673.167 979.5 872.5C968.167 932.5 932.5 968.167 872.5 979.5C617.167 979.5 361.833 979.5 106.5 979.5C46.5 968.167 10.8333 932.5 -0.5 872.5C-0.5 673.167 -0.5 473.833 -0.5 274.5C162.202 182.818 324.868 91.1512 487.5 -0.5ZM488.5 71.5C631.3 149.4 773.967 227.567 916.5 306C774.485 414.664 632.152 522.831 489.5 630.5C346.848 522.831 204.515 414.664 62.5 306C204.666 227.969 346.666 149.803 488.5 71.5ZM61.5 380.5C153.625 453.453 245.625 526.62 337.5 600C246.333 691.167 155.167 782.333 64 873.5C63.0797 870.899 62.413 868.232 62 865.5C61.5 703.834 61.3333 542.167 61.5 380.5ZM916.5 380.5C917.666 541.999 917.833 703.666 917 865.5C916.587 868.232 915.92 870.899 915 873.5C823.833 782.333 732.667 691.167 641.5 600C733.354 526.969 825.021 453.803 916.5 380.5ZM388.5 636.5C389.552 636.351 390.552 636.517 391.5 637C424.029 659.695 456.696 682.195 489.5 704.5C522.304 682.195 554.971 659.695 587.5 637C588.5 636.333 589.5 636.333 590.5 637C683.5 730 776.5 823 869.5 916C616.167 916.667 362.833 916.667 109.5 916C202.701 822.965 295.701 729.799 388.5 636.5Z" fill="#05366C"/>
</svg>
