<svg width="24" height="24" viewBox="0 0 24 24" fill="none" xmlns="http://www.w3.org/2000/svg">
<path fill-rule="evenodd" clip-rule="evenodd" d="M19.9725 4.03553C18.9344 2.99097 17.6993 2.16277 16.3388 1.59889C14.9784 1.035 13.5196 0.746651 12.0469 0.750527C5.87344 0.750527 0.84375 5.77553 0.84375 11.949C0.839071 13.9147 1.35465 15.8466 2.33812 17.5487L0.75 23.3527L6.69 21.7927C8.33249 22.6875 10.1727 23.157 12.0431 23.1587H12.0478C18.2222 23.1587 23.2463 18.1346 23.25 11.9565C23.25 8.9649 22.0856 6.1524 19.9725 4.03459V4.03553ZM12.0469 21.2658H12.0431C10.3758 21.2658 8.73914 20.818 7.30406 19.9693L6.96375 19.7677L3.43688 20.6912L4.37812 17.2552L4.15875 16.9037C3.22556 15.4197 2.73151 13.7019 2.73375 11.949C2.73375 6.81896 6.91219 2.64428 12.0506 2.64428C13.2735 2.64122 14.4849 2.88077 15.6145 3.34906C16.7442 3.81734 17.7698 4.50506 18.6319 5.3724C19.4982 6.23558 20.1849 7.26185 20.6524 8.39194C21.1198 9.52202 21.3587 10.7335 21.3553 11.9565C21.3553 17.0912 17.1769 21.2658 12.0459 21.2658H12.0469ZM17.1516 14.2927C16.8731 14.154 15.4959 13.4771 15.24 13.3852C14.9841 13.2896 14.7966 13.2455 14.61 13.524C14.4225 13.8052 13.8881 14.4362 13.7241 14.6227C13.5628 14.8055 13.3978 14.8318 13.1194 14.6921C12.8381 14.5533 11.9372 14.2562 10.8675 13.3008C10.0359 12.5602 9.4725 11.6415 9.31125 11.363C9.14625 11.0818 9.2925 10.9318 9.43219 10.7912C9.55969 10.6674 9.71344 10.4658 9.85312 10.3008C9.99187 10.1405 10.0406 10.0233 10.1344 9.83584C10.2263 9.64928 10.1794 9.48428 10.1091 9.34553C10.0397 9.20678 9.48 7.82584 9.24563 7.26521C9.01781 6.71959 8.78719 6.79646 8.61563 6.78615C8.45438 6.77865 8.26781 6.77865 8.08125 6.77865C7.89375 6.77865 7.59 6.84803 7.33313 7.13021C7.07719 7.40865 6.35531 8.08646 6.35531 9.46271C6.35531 10.8399 7.35844 12.1721 7.49906 12.3596C7.63781 12.5424 9.4725 15.369 12.2803 16.5821C12.9478 16.8708 13.4672 17.0433 13.8741 17.1718C14.5444 17.3837 15.1556 17.3546 15.6394 17.2843C16.1775 17.2046 17.2941 16.6074 17.5284 15.9521C17.76 15.3005 17.76 14.7399 17.6897 14.6227C17.6203 14.5055 17.4338 14.4352 17.1516 14.2927Z" fill="#E0E0E0"/>
</svg>
