<?xml version="1.0" encoding="UTF-8"?>
<!DOCTYPE svg PUBLIC "-//W3C//DTD SVG 1.1//EN" "http://www.w3.org/Graphics/SVG/1.1/DTD/svg11.dtd">
<svg xmlns="http://www.w3.org/2000/svg" version="1.1" width="980px" height="980px" style="shape-rendering:geometricPrecision; text-rendering:geometricPrecision; image-rendering:optimizeQuality; fill-rule:evenodd; clip-rule:evenodd" xmlns:xlink="http://www.w3.org/1999/xlink">
<g><path style="opacity:1" fill="#05366c" d="M 487.5,-0.5 C 488.833,-0.5 490.167,-0.5 491.5,-0.5C 654.132,91.1512 816.798,182.818 979.5,274.5C 979.5,473.833 979.5,673.167 979.5,872.5C 968.167,932.5 932.5,968.167 872.5,979.5C 617.167,979.5 361.833,979.5 106.5,979.5C 46.5,968.167 10.8333,932.5 -0.5,872.5C -0.5,673.167 -0.5,473.833 -0.5,274.5C 162.202,182.818 324.868,91.1512 487.5,-0.5 Z M 488.5,71.5 C 631.3,149.4 773.967,227.567 916.5,306C 774.485,414.664 632.152,522.831 489.5,630.5C 346.848,522.831 204.515,414.664 62.5,306C 204.666,227.969 346.666,149.803 488.5,71.5 Z M 61.5,380.5 C 153.625,453.453 245.625,526.62 337.5,600C 246.333,691.167 155.167,782.333 64,873.5C 63.0797,870.899 62.413,868.232 62,865.5C 61.5,703.834 61.3333,542.167 61.5,380.5 Z M 916.5,380.5 C 917.666,541.999 917.833,703.666 917,865.5C 916.587,868.232 915.92,870.899 915,873.5C 823.833,782.333 732.667,691.167 641.5,600C 733.354,526.969 825.021,453.803 916.5,380.5 Z M 388.5,636.5 C 389.552,636.351 390.552,636.517 391.5,637C 424.029,659.695 456.696,682.195 489.5,704.5C 522.304,682.195 554.971,659.695 587.5,637C 588.5,636.333 589.5,636.333 590.5,637C 683.5,730 776.5,823 869.5,916C 616.167,916.667 362.833,916.667 109.5,916C 202.701,822.965 295.701,729.799 388.5,636.5 Z"/></g>
</svg>
