<svg width="900" height="900" viewBox="0 0 900 900" fill="none" xmlns="http://www.w3.org/2000/svg">
<g clip-path="url(#clip0_1304_416)">
<path fill-rule="evenodd" clip-rule="evenodd" d="M155.5 -0.5C352.167 -0.5 548.833 -0.5 745.5 -0.5C804.414 7.5406 848.914 37.2073 879 88.5C889.784 109.014 896.617 130.681 899.5 153.5C899.5 350.167 899.5 546.833 899.5 743.5C889.247 816.93 849.247 866.43 779.5 892C767.586 895.615 755.586 898.115 743.5 899.5C546.833 899.5 350.167 899.5 153.5 899.5C94.5862 891.459 50.0862 861.793 20 810.5C9.21609 789.986 2.38275 768.319 -0.5 745.5C-0.5 548.833 -0.5 352.167 -0.5 155.5C9.75324 82.0695 49.7532 32.5695 119.5 7C131.414 3.38504 143.414 0.885044 155.5 -0.5ZM165.5 42.5C354.834 42.3333 544.167 42.5 733.5 43C787.196 47.7265 825.03 74.5598 847 123.5C852.427 136.967 855.427 150.967 856 165.5C856.667 354.833 856.667 544.167 856 733.5C851.273 787.196 824.44 825.03 775.5 847C762.033 852.427 748.033 855.427 733.5 856C544.167 856.667 354.833 856.667 165.5 856C111.804 851.273 73.9704 824.44 52 775.5C46.573 762.033 43.573 748.033 43 733.5C42.0129 540.484 42.3463 347.484 44 154.5C51.3027 107.882 76.136 74.3819 118.5 54C133.662 47.5459 149.328 43.7126 165.5 42.5Z" fill="#05376C"/>
<path fill-rule="evenodd" clip-rule="evenodd" d="M480.5 126.5C559.13 139.894 625.963 175.227 681 232.5C746.09 302.061 779.09 384.727 780 480.5C773.122 494.853 762.289 499.02 747.5 493C741.933 489.713 738.433 484.879 737 478.5C730.319 354.545 673.486 262.045 566.5 201C539.5 187.222 511.166 177.222 481.5 171C467.802 167.44 461.635 158.607 463 144.5C465.692 135.309 471.525 129.309 480.5 126.5Z" fill="#05366C"/>
<path fill-rule="evenodd" clip-rule="evenodd" d="M229.5 139.5C240.838 139.837 250.505 144.004 258.5 152C290.304 182.137 321.804 212.637 353 243.5C359.605 250.108 364.605 257.774 368 266.5C368.826 271.589 368.492 276.589 367 281.5C364.401 287.089 361.401 292.423 358 297.5C344.17 314.33 331.503 331.997 320 350.5C314.689 367.947 317.689 383.947 329 398.5C337.71 408.208 346.043 418.208 354 428.5C390.167 466 427 502.833 464.5 539C477.597 551.048 491.93 561.382 507.5 570C517.838 574.921 528.172 575.254 538.5 571C543.446 569.194 548.112 566.861 552.5 564C568.5 552 584.5 540 600.5 528C604.945 525.443 609.611 523.443 614.5 522C618.261 521.262 621.928 521.595 625.5 523C630.997 525.245 635.997 528.245 640.5 532C667.333 557.5 693.5 583.667 719 610.5C728.139 620.126 736.806 630.126 745 640.5C750.782 648.742 752.448 657.742 750 667.5C745.403 679.36 739.737 690.693 733 701.5C721.069 719.696 708.402 737.362 695 754.5C678.893 771.836 659.393 777.003 636.5 770C615.603 763.887 595.603 755.553 576.5 745C522.373 715.616 471.707 681.283 424.5 642C389.365 609.867 354.532 577.367 320 544.5C301.066 522.897 281.4 501.897 261 481.5C215.402 427.665 175.736 369.665 142 307.5C131.855 289.214 124.522 269.881 120 249.5C114.734 228.776 119.901 211.276 135.5 197C160.641 176.259 187.641 158.259 216.5 143C220.86 141.417 225.194 140.25 229.5 139.5Z" fill="#05366C"/>
<path fill-rule="evenodd" clip-rule="evenodd" d="M475.5 206.5C558.857 225.057 622.024 271.057 665 344.5C687.937 384.92 699.27 428.254 699 474.5C693.834 486 685.001 490.5 672.5 488C662.585 484.749 657.085 477.915 656 467.5C647.842 383.45 608.009 319.617 536.5 276C514.728 263.951 491.728 254.951 467.5 249C453.181 238.113 451.848 225.78 463.5 212C467.284 209.471 471.284 207.638 475.5 206.5Z" fill="#05366C"/>
<path fill-rule="evenodd" clip-rule="evenodd" d="M466.5 293.5C478.084 294.527 489.084 297.693 499.5 303C561.776 333.634 599.61 383.134 613 451.5C615.778 467.136 609.611 476.969 594.5 481C582.066 481.907 573.899 476.407 570 464.5C558.654 399.151 521.487 355.984 458.5 335C448.646 327.617 445.813 318.117 450 306.5C453.772 299.877 459.272 295.543 466.5 293.5Z" fill="#05366C"/>
</g>
<defs>
<clipPath id="clip0_1304_416">
<rect width="900" height="900" fill="white"/>
</clipPath>
</defs>
</svg>
