<svg fill="none" xmlns="http://www.w3.org/2000/svg" viewBox="0 0 30 30">
  <path fill-rule="evenodd" clip-rule="evenodd" d="M22.973 7.036a11.132 11.132 0 00-7.926-3.285c-6.174 0-11.203 5.025-11.203 11.198a11.14 11.14 0 001.494 5.6L3.75 26.353l5.94-1.56a11.21 11.21 0 005.353 1.366h.005c6.174 0 11.198-5.024 11.202-11.202 0-2.992-1.164-5.805-3.277-7.922zm-7.926 17.23h-.004a9.31 9.31 0 01-4.739-1.297l-.34-.201-3.527.923.941-3.436-.22-.351a9.285 9.285 0 01-1.424-4.955c0-5.13 4.178-9.305 9.317-9.305a9.246 9.246 0 016.58 2.728 9.26 9.26 0 012.724 6.585c0 5.134-4.178 9.309-9.31 9.309h.002zm5.105-6.973c-.279-.139-1.656-.816-1.912-.908-.256-.095-.443-.14-.63.139-.188.281-.722.912-.886 1.099-.161.182-.326.209-.605.07-.28-.14-1.182-.437-2.252-1.392-.831-.74-1.395-1.66-1.556-1.938-.165-.281-.018-.431.121-.572.128-.124.281-.325.421-.49.139-.16.188-.278.281-.465.092-.187.045-.352-.025-.49-.07-.14-.629-1.52-.863-2.08-.228-.546-.459-.47-.63-.48-.162-.007-.348-.007-.535-.007-.187 0-.491.069-.748.351-.256.279-.978.956-.978 2.333 0 1.377 1.003 2.71 1.144 2.897.139.182 1.973 3.009 4.781 4.222.668.289 1.187.461 1.594.59.67.212 1.282.183 1.765.112.538-.08 1.655-.677 1.89-1.332.231-.652.231-1.212.16-1.33-.069-.116-.255-.187-.537-.33z"></path>
</svg>
