<?xml version="1.0" encoding="utf-8"?><svg viewBox="0 0 980 980" xmlns="http://www.w3.org/2000/svg" xmlns:xlink="http://www.w3.org/1999/xlink"><style>:root>svg{display:none}:root>svg:target{display:block}</style><svg viewBox="0 0 448 512" id="icon-check" xmlns="http://www.w3.org/2000/svg"><path d="M438.6 105.4c12.5 12.5 12.5 32.8 0 45.3l-256 256c-12.5 12.5-32.8 12.5-45.3 0l-128-128c-12.5-12.5-12.5-32.8 0-45.3s32.8-12.5 45.3 0L160 338.7l233.4-233.3c12.5-12.5 32.8-12.5 45.3 0z"/></svg><svg viewBox="0 0 24 24" id="icon-clock" xmlns="http://www.w3.org/2000/svg"><path d="M11.99 2C6.47 2 2 6.48 2 12s4.47 10 9.99 10C17.52 22 22 17.52 22 12S17.52 2 11.99 2zM12 20c-4.42 0-8-3.58-8-8s3.58-8 8-8 8 3.58 8 8-3.58 8-8 8z"/><path d="M12.5 7H11v6l5.25 3.15.75-1.23-4.5-2.67V7z"/></svg><svg viewBox="0 0 16 16" id="icon-close" xmlns="http://www.w3.org/2000/svg"><path d="M9.214 8L15.367.666a.186.186 0 00-.143-.307h-1.87c-.11 0-.216.05-.289.134l-5.074 6.05L2.917.492a.375.375 0 00-.289-.134H.758a.186.186 0 00-.143.307L6.767 8 .615 15.334a.187.187 0 00.143.307h1.87c.11 0 .216-.05.289-.134l5.074-6.05 5.074 6.05c.07.084.176.134.288.134h1.87c.16 0 .247-.185.144-.307L9.214 8z"/></svg><svg viewBox="0 0 384 512" id="icon-location" xmlns="http://www.w3.org/2000/svg"><path d="M215.7 499.2C267 435 384 279.4 384 192 384 86 298 0 192 0S0 86 0 192c0 87.4 117 243 168.3 307.2 12.3 15.3 35.1 15.3 47.4 0zM192 128a64 64 0 110 128 64 64 0 110-128z"/></svg><svg viewBox="0 0 25 24" id="icon-login" xmlns="http://www.w3.org/2000/svg"><path d="M12.5 5.9a2.1 2.1 0 110 4.199 2.1 2.1 0 010-4.199zm0 9c2.97 0 6.1 1.46 6.1 2.1v1.1H6.4V17c0-.64 3.13-2.1 6.1-2.1zm0-10.9c-2.21 0-4 1.79-4 4s1.79 4 4 4 4-1.79 4-4-1.79-4-4-4zm0 9c-2.67 0-8 1.34-8 4v3h16v-3c0-2.66-5.33-4-8-4z"/></svg><svg viewBox="0 0 24 24" id="icon-mail" xmlns="http://www.w3.org/2000/svg"><path d="M20 4H4c-1.1 0-1.99.9-1.99 2L2 18c0 1.1.9 2 2 2h16c1.1 0 2-.9 2-2V6c0-1.1-.9-2-2-2zm0 14H4V8l8 5 8-5v10zm-8-7L4 6h16l-8 5z"/></svg><svg viewBox="0 0 980 980" id="icon-mail-lg" xmlns="http://www.w3.org/2000/svg"><path fill-rule="evenodd" clip-rule="evenodd" d="M487.5-.5h4a13884252.64 13884252.64 0 00488 275v598c-11.333 60-47 95.667-107 107h-766c-60-11.333-95.667-47-107-107v-598a13884252.64 13884252.64 0 00488-275zm1 72c142.8 77.9 285.467 156.067 428 234.5a81415.476 81415.476 0 01-427 324.5A81415.476 81415.476 0 0162.5 306a197853.947 197853.947 0 00426-234.5zm-427 309a84629.233 84629.233 0 01276 219.5L64 873.5a43.361 43.361 0 01-2-8c-.5-161.666-.667-323.333-.5-485zm855 0a39217.43 39217.43 0 01.5 485 43.385 43.385 0 01-2 8L641.5 600a92422.34 92422.34 0 00275-219.5zm-528 256a4.934 4.934 0 013 .5 9891.782 9891.782 0 0098 67.5 9891.782 9891.782 0 0098-67.5c1-.667 2-.667 3 0l279 279c-253.333.667-506.667.667-760 0a110371.304 110371.304 0 00279-279.5z"/></svg><svg viewBox="0 0 24 24" id="icon-pale-2" xmlns="http://www.w3.org/2000/svg"><path d="M0 0h24v24H0z"/><path d="M8 5v14l11-7z"/></svg><svg viewBox="0 0 12 14" id="icon-pause" xmlns="http://www.w3.org/2000/svg"><path d="M0 14h4V0H0v14zM8 0v14h4V0H8z"/></svg><svg viewBox="0 0 24 24" id="icon-phone" xmlns="http://www.w3.org/2000/svg"><path d="M15 12h2c0-2.76-2.24-5-5-5v2c1.66 0 3 1.34 3 3zm4 0h2a9 9 0 00-9-9v2c3.87 0 7 3.13 7 7zm1 3.5c-1.25 0-2.45-.2-3.57-.57-.1-.03-.21-.05-.31-.05-.26 0-.51.1-.71.29l-2.2 2.2a15.045 15.045 0 01-6.59-6.59l2.2-2.21a.96.96 0 00.25-1A11.36 11.36 0 018.5 4c0-.55-.45-1-1-1H4c-.55 0-1 .45-1 1 0 9.39 7.61 17 17 17 .55 0 1-.45 1-1v-3.5c0-.55-.45-1-1-1zM5.03 5h1.5c.07.88.22 1.75.45 2.58l-1.2 1.21c-.4-1.21-.66-2.47-.75-3.79zM19 18.97c-1.32-.09-2.6-.35-3.8-.76l1.2-1.2c.85.24 1.72.39 2.6.45v1.51z"/></svg><svg viewBox="0 0 900 900" id="icon-phone-lg" xmlns="http://www.w3.org/2000/svg"><g clip-path="url(#ka)" fill-rule="evenodd" clip-rule="evenodd"><path d="M155.5-.5h590c58.914 8.04 103.414 37.707 133.5 89 10.784 20.514 17.617 42.181 20.5 65v590c-10.253 73.43-50.253 122.93-120 148.5-11.914 3.615-23.914 6.115-36 7.5h-590c-58.914-8.041-103.414-37.707-133.5-89-10.784-20.514-17.617-42.181-20.5-65v-590C9.753 82.07 49.753 32.57 119.5 7c11.914-3.615 23.914-6.115 36-7.5zm10 43c189.334-.167 378.667 0 568 .5 53.696 4.727 91.53 31.56 113.5 80.5 5.427 13.467 8.427 27.467 9 42 .667 189.333.667 378.667 0 568-4.727 53.696-31.56 91.53-80.5 113.5-13.467 5.427-27.467 8.427-42 9-189.333.667-378.667.667-568 0-53.696-4.727-91.53-31.56-113.5-80.5-5.427-13.467-8.427-27.467-9-42a42315.385 42315.385 0 011-579c7.303-46.618 32.136-80.118 74.5-100.5 15.162-6.454 30.828-10.287 47-11.5z"/><path d="M480.5 126.5c78.63 13.394 145.463 48.727 200.5 106 65.09 69.561 98.09 152.227 99 248-6.878 14.353-17.711 18.52-32.5 12.5-5.567-3.287-9.067-8.121-10.5-14.5-6.681-123.955-63.514-216.455-170.5-277.5-27-13.778-55.334-23.778-85-30-13.698-3.56-19.865-12.393-18.5-26.5 2.692-9.191 8.525-15.191 17.5-18zm-251 13c11.338.337 21.005 4.504 29 12.5a6106.56 6106.56 0 0194.5 91.5c6.605 6.608 11.605 14.274 15 23 .826 5.089.492 10.089-1 15a118.421 118.421 0 01-9 16 495.19 495.19 0 00-38 53c-5.311 17.447-2.311 33.447 9 48a533.952 533.952 0 0125 30c36.167 37.5 73 74.333 110.5 110.5a222.303 222.303 0 0043 31c10.338 4.921 20.672 5.254 31 1a68.669 68.669 0 0014-7l48-36a64.732 64.732 0 0114-6c3.761-.738 7.428-.405 11 1a56.81 56.81 0 0115 9c26.833 25.5 53 51.667 78.5 78.5a436.544 436.544 0 0126 30c5.782 8.242 7.448 17.242 5 27a202.405 202.405 0 01-17 34 782.734 782.734 0 01-38 53c-16.107 17.336-35.607 22.503-58.5 15.5a295.008 295.008 0 01-60-25c-54.127-29.384-104.793-63.717-152-103A7182.167 7182.167 0 01320 544.5a1311.236 1311.236 0 00-59-63c-45.598-53.835-85.264-111.835-119-174-10.145-18.286-17.478-37.619-22-58-5.266-20.724-.099-38.224 15.5-52.5a478.167 478.167 0 0181-54c4.36-1.583 8.694-2.75 13-3.5z"/><path d="M475.5 206.5c83.357 18.557 146.524 64.557 189.5 138 22.937 40.42 34.27 83.754 34 130-5.166 11.5-13.999 16-26.5 13.5-9.915-3.251-15.415-10.085-16.5-20.5-8.158-84.05-47.991-147.883-119.5-191.5-21.772-12.049-44.772-21.049-69-27-14.319-10.887-15.652-23.22-4-37 3.784-2.529 7.784-4.362 12-5.5z"/><path d="M466.5 293.5c11.584 1.027 22.584 4.193 33 9.5 62.276 30.634 100.11 80.134 113.5 148.5 2.778 15.636-3.389 25.469-18.5 29.5-12.434.907-20.601-4.593-24.5-16.5-11.346-65.349-48.513-108.516-111.5-129.5-9.854-7.383-12.687-16.883-8.5-28.5 3.772-6.623 9.272-10.957 16.5-13z"/></g><defs><clipPath id="ka"><path d="M0 0h900v900H0z"/></clipPath></defs></svg><svg viewBox="0 0 29 30" id="icon-place" xmlns="http://www.w3.org/2000/svg"><path d="M14.26 15c-1.307 0-2.377-1.125-2.377-2.5s1.07-2.5 2.377-2.5c1.307 0 2.376 1.125 2.376 2.5S15.566 15 14.26 15zm7.13-2.25c0-4.537-3.15-7.75-7.13-7.75-3.981 0-7.13 3.213-7.13 7.75 0 2.925 2.317 6.8 7.13 11.425 4.812-4.625 7.13-8.5 7.13-11.425zM14.26 2.5c4.99 0 9.506 4.025 9.506 10.25 0 4.15-3.173 9.063-9.506 14.75-6.334-5.688-9.507-10.6-9.507-14.75C4.753 6.525 9.27 2.5 14.26 2.5z"/></svg><svg viewBox="0 0 11 14" id="icon-play" xmlns="http://www.w3.org/2000/svg"><path d="M0 0v14l11-7L0 0z"/></svg><svg viewBox="0 0 18 17" id="icon-right" xmlns="http://www.w3.org/2000/svg"><path d="M0 8h15.313L8.75 1.437 9.58.5l8.125 8.125L9.58 16.75l-.83-.938 6.563-6.562H0V8z"/></svg><svg viewBox="0 0 24 24" id="icon-search" xmlns="http://www.w3.org/2000/svg"><path d="M21.319 20.027l-6.087-6.086a6.968 6.968 0 001.456-4.285c0-1.88-.734-3.642-2.06-4.97a6.98 6.98 0 00-4.972-2.061 6.99 6.99 0 00-4.97 2.06 6.975 6.975 0 00-2.061 4.971c0 1.878.734 3.645 2.06 4.971a6.975 6.975 0 004.971 2.06 6.97 6.97 0 004.282-1.453l6.087 6.085a.19.19 0 00.136.056.191.191 0 00.136-.056l1.022-1.02a.19.19 0 00.041-.21.191.191 0 00-.041-.062zm-7.95-6.658a5.222 5.222 0 01-3.713 1.537 5.222 5.222 0 01-3.712-1.537 5.222 5.222 0 01-1.538-3.713c0-1.401.546-2.72 1.538-3.712a5.222 5.222 0 013.712-1.538c1.402 0 2.721.544 3.713 1.538a5.222 5.222 0 011.537 3.712 5.218 5.218 0 01-1.537 3.713z"/></svg><svg viewBox="0 0 182 182" id="icon-tg" xmlns="http://www.w3.org/2000/svg"><path d="M135.044 47.32L34.216 87.36c-3.276 1.092-2.912 5.824.364 6.916l25.48 8.008 10.192 32.032c.728 2.548 4.004 3.276 5.824 1.456L91 121.94l28.392 20.748c2.184 1.456 5.096.364 5.824-2.184l19.656-84.448c1.092-6.188-4.368-10.92-9.828-8.736zm-58.968 61.152L72.8 127.4l-7.28-26.208L136.5 54.6l-60.424 53.872z"/></svg><svg viewBox="0 0 448 512" id="icon-user" xmlns="http://www.w3.org/2000/svg"><path d="M304 128a80 80 0 10-160 0 80 80 0 10160 0zm-208 0a128 128 0 11256 0 128 128 0 11-256 0zM49.3 464h349.4c-8.9-63.3-63.3-112-129-112h-91.4c-65.7 0-120.1 48.7-129 112zM0 482.3C0 383.8 79.8 304 178.3 304h91.4c98.5 0 178.3 79.8 178.3 178.3 0 16.4-13.3 29.7-29.7 29.7H29.7C13.3 512 0 498.7 0 482.3z"/></svg><svg viewBox="0 0 30 30" id="icon-whatsapp" xmlns="http://www.w3.org/2000/svg"><path clip-rule="evenodd" d="M22.973 7.036a11.132 11.132 0 00-7.926-3.285c-6.174 0-11.203 5.025-11.203 11.198a11.14 11.14 0 001.494 5.6L3.75 26.353l5.94-1.56a11.21 11.21 0 005.353 1.366h.005c6.174 0 11.198-5.024 11.202-11.202 0-2.992-1.164-5.805-3.277-7.922zm-7.926 17.23h-.004a9.31 9.31 0 01-4.739-1.297l-.34-.201-3.527.923.941-3.436-.22-.351a9.285 9.285 0 01-1.424-4.955c0-5.13 4.178-9.305 9.317-9.305a9.246 9.246 0 016.58 2.728 9.26 9.26 0 012.724 6.585c0 5.134-4.178 9.309-9.31 9.309h.002zm5.105-6.973c-.279-.139-1.656-.816-1.912-.908-.256-.095-.443-.14-.63.139-.188.281-.722.912-.886 1.099-.161.182-.326.209-.605.07-.28-.14-1.182-.437-2.252-1.392-.831-.74-1.395-1.66-1.556-1.938-.165-.281-.018-.431.121-.572.128-.124.281-.325.421-.49.139-.16.188-.278.281-.465.092-.187.045-.352-.025-.49-.07-.14-.629-1.52-.863-2.08-.228-.546-.459-.47-.63-.48-.162-.007-.348-.007-.535-.007-.187 0-.491.069-.748.351-.256.279-.978.956-.978 2.333 0 1.377 1.003 2.71 1.144 2.897.139.182 1.973 3.009 4.781 4.222.668.289 1.187.461 1.594.59.67.212 1.282.183 1.765.112.538-.08 1.655-.677 1.89-1.332.231-.652.231-1.212.16-1.33-.069-.116-.255-.187-.537-.33z"/></svg><svg viewBox="0 0 24 24" id="icon-whatsapp-lg" xmlns="http://www.w3.org/2000/svg"><path fill-rule="evenodd" clip-rule="evenodd" d="M19.973 4.036A11.132 11.132 0 0012.046.75C5.873.75.844 5.776.844 11.949a11.14 11.14 0 001.494 5.6L.75 23.353l5.94-1.56a11.21 11.21 0 005.353 1.366h.005c6.174 0 11.198-5.024 11.202-11.202 0-2.992-1.164-5.805-3.277-7.922zm-7.926 17.23h-.004a9.31 9.31 0 01-4.739-1.297l-.34-.201-3.527.923.941-3.436-.22-.351a9.285 9.285 0 01-1.424-4.955c0-5.13 4.178-9.305 9.317-9.305a9.246 9.246 0 016.58 2.728 9.259 9.259 0 012.724 6.585c0 5.134-4.178 9.309-9.31 9.309h.002zm5.105-6.973c-.279-.139-1.656-.816-1.912-.908-.256-.095-.443-.14-.63.139-.188.281-.722.912-.886 1.099-.161.183-.326.209-.605.07-.28-.14-1.182-.437-2.252-1.392-.831-.74-1.395-1.66-1.556-1.938-.165-.281-.018-.431.121-.572.128-.124.281-.325.421-.49.139-.16.188-.278.281-.465.092-.187.045-.352-.025-.49-.07-.14-.629-1.52-.863-2.08-.228-.546-.459-.47-.63-.48-.162-.007-.348-.007-.535-.007-.187 0-.491.069-.748.351-.256.279-.978.956-.978 2.333 0 1.377 1.003 2.71 1.144 2.897.139.182 1.974 3.009 4.781 4.222.668.289 1.187.461 1.594.59.67.212 1.282.183 1.765.112.538-.08 1.655-.677 1.89-1.332.231-.652.231-1.212.16-1.33-.069-.117-.255-.187-.537-.33z"/></svg><svg viewBox="0 0 576 512" id="icon-youtube" xmlns="http://www.w3.org/2000/svg"><path d="M549.655 124.083c-6.281-23.65-24.787-42.276-48.284-48.597C458.781 64 288 64 288 64S117.22 64 74.629 75.486c-23.497 6.322-42.003 24.947-48.284 48.597-11.412 42.867-11.412 132.305-11.412 132.305s0 89.438 11.412 132.305c6.281 23.65 24.787 41.5 48.284 47.821C117.22 448 288 448 288 448s170.78 0 213.371-11.486c23.497-6.321 42.003-24.171 48.284-47.821 11.412-42.867 11.412-132.305 11.412-132.305s0-89.438-11.412-132.305zm-317.51 213.508V175.185l142.739 81.205-142.739 81.201z"/></svg></svg>